<svg width="32" height="32" viewBox="0 0 32 32" fill="none" xmlns="http://www.w3.org/2000/svg">
<path fill-rule="evenodd" clip-rule="evenodd" d="M15 22C15 22.5523 15.4477 23 16 23C16.5523 23 17 22.5523 17 22V17H22C22.5523 17 23 16.5523 23 16C23 15.4477 22.5523 15 22 15H17V10C17 9.44772 16.5523 9 16 9C15.4477 9 15 9.44772 15 10V15H10C9.44772 15 9 15.4477 9 16C9 16.5523 9.44772 17 10 17H15V22Z" fill="#666666"/>
<path d="M30 16C30 23.732 23.732 30 16 30C8.26801 30 2 23.732 2 16C2 8.26801 8.26801 2 16 2C23.732 2 30 8.26801 30 16ZM4.1 16C4.1 22.5722 9.42781 27.9 16 27.9C22.5722 27.9 27.9 22.5722 27.9 16C27.9 9.42781 22.5722 4.1 16 4.1C9.42781 4.1 4.1 9.42781 4.1 16Z" fill="#666666"/>
</svg>
