<svg width="531" height="274" viewBox="0 0 531 274" fill="none" xmlns="http://www.w3.org/2000/svg">
<circle cx="117.4" cy="27" r="25" fill="#FAFAFA" stroke="#4A4A4A" stroke-width="4"/>
<circle cx="408" cy="27" r="25" fill="#FAFAFA" stroke="#4A4A4A" stroke-width="4"/>
<circle cx="408" cy="247" r="25" fill="#FAFAFA" stroke="#4A4A4A" stroke-width="4"/>
<circle cx="117.4" cy="247" r="25" fill="#FAFAFA" stroke="#4A4A4A" stroke-width="4"/>
<path d="M527.25 196.748V204.749C525.877 205.217 523.46 206.022 520.869 206.793C518.734 207.428 516.548 208.018 514.75 208.39V196.748H527.25ZM527.25 83.748V193.248H514.75V83.748H527.25ZM514.75 65.7266C516.549 66.1493 518.729 66.7976 520.856 67.4893C523.462 68.3366 525.889 69.2124 527.25 69.7139V80.248H514.75V65.7266Z" fill="#FAFAFA"/>
<path d="M153.608 35H371.856C372.248 35 372.6 35.2214 372.765 35.5771C381.242 53.848 402.131 81.1425 439.071 48.8767C439.331 48.6498 439.66 48.5477 439.991 48.646C445.995 50.4312 505.076 67.9746 506.5 67.5C508 67 510.1 66.4 510.5 64C510.589 63.4662 511.554 63.3925 513 63.6006C517.323 64.2226 525.949 67.3623 528.361 68.26C528.75 68.4047 529 68.7741 529 69.189V82V195V205.293C529 205.717 528.738 206.093 528.337 206.231C525.893 207.072 517.309 209.957 513 210.463C511.554 210.632 510.589 210.534 510.5 210C510.12 207.72 507.905 206.764 506.684 206.531C506.562 206.508 506.438 206.514 506.317 206.543L441.001 221.767C440.688 221.84 440.359 221.757 440.114 221.548C427.391 210.679 409.998 207.114 399 210C377.882 215.541 367.278 239 366.856 239H154.021C153.695 239 153.382 238.831 153.194 238.564C140.5 216 129.25 212.111 116 212.5C96.4649 213.073 78.9654 228.098 74.1841 228.492C74.0562 228.503 73.9388 228.475 73.8198 228.427L22.3125 207.626C22.1098 207.544 21.8807 207.533 21.6694 207.589C9.00798 210.946 3.41959 206.844 2.0881 204.188C2.02628 204.064 2 203.929 2 203.791V70.2092C2 70.0712 2.02628 69.9357 2.0881 69.8124C3.41959 67.1557 9.00798 63.0544 21.6694 66.4111C21.8807 66.4671 22.1098 66.4557 22.3125 66.3738C22.3125 66.3738 78.5 36.5 81 39.5C83.5 42.5 101.965 63.0065 120 62C137.289 61.0351 149.095 39.6064 152.917 35.2958C153.093 35.0974 153.343 35 153.608 35Z" fill="#FAFAFA"/>
<path d="M513 63.6006C517.323 64.2226 525.949 67.3623 528.361 68.26C528.75 68.4047 529 68.7741 529 69.189V82M513 63.6006C511.554 63.3925 510.589 63.4662 510.5 64C510.1 66.4 508 67 506.5 67.5C505.076 67.9746 445.995 50.4312 439.991 48.646C439.66 48.5477 439.331 48.6498 439.071 48.8767C402.131 81.1425 381.242 53.848 372.765 35.5771C372.6 35.2214 372.248 35 371.856 35H153.608C153.343 35 153.093 35.0974 152.917 35.2958C149.095 39.6064 137.289 61.0351 120 62C101.965 63.0066 83.5 42.5 81 39.5C78.5 36.5 22.3125 66.3738 22.3125 66.3738C22.1098 66.4557 21.8807 66.4671 21.6694 66.4111C9.00798 63.0544 3.41959 67.1557 2.0881 69.8124C2.02628 69.9357 2 70.0712 2 70.2092V203.791C2 203.929 2.02628 204.064 2.0881 204.188C3.41959 206.844 9.00798 210.946 21.6694 207.589C21.8807 207.533 22.1098 207.544 22.3125 207.626L73.8198 228.427C73.9388 228.475 74.0562 228.503 74.1841 228.492C78.9654 228.098 96.4649 213.073 116 212.5C129.25 212.112 140.5 216 153.194 238.564C153.382 238.831 153.695 239 154.021 239H366.856C367.278 239 377.882 215.541 399 210C409.998 207.114 427.391 210.679 440.114 221.548C440.359 221.757 440.688 221.84 441.001 221.767L506.317 206.543C506.438 206.514 506.562 206.508 506.684 206.531C507.905 206.764 510.12 207.72 510.5 210C510.589 210.534 511.554 210.632 513 210.463M513 63.6006V82M513 210.463C517.309 209.957 525.893 207.072 528.337 206.231C528.738 206.093 529 205.717 529 205.293V195M513 210.463V195M513 195H529M513 195V82M529 195V82M513 82H529" stroke="#4A4A4A" stroke-width="3.5"/>
<path fill-rule="evenodd" clip-rule="evenodd" d="M170.358 233.002L169.668 232.999C169.245 232.997 168.663 232.995 168.031 232.993C166.764 232.99 165.307 232.99 164.516 233.002C155.029 233.147 146.177 224.01 146.001 212.518C145.956 209.561 147.443 206.251 149.514 203.052C151.607 199.819 154.395 196.55 157.163 193.64C159.935 190.726 162.709 188.149 164.788 186.303C165.828 185.379 166.696 184.636 167.305 184.123C167.609 183.867 167.849 183.668 168.013 183.533C168.095 183.466 168.158 183.414 168.201 183.379L168.25 183.339L168.263 183.328L168.267 183.326L168.268 183.325C168.268 183.325 168.268 183.324 168.896 184.103L168.268 183.325L168.306 183.294L168.346 183.267L168.896 184.103C168.346 183.267 168.346 183.268 168.346 183.267L168.347 183.267L168.349 183.265L168.357 183.26L168.385 183.242C168.41 183.225 168.447 183.202 168.494 183.171C168.589 183.11 168.728 183.021 168.907 182.908C169.265 182.683 169.783 182.362 170.428 181.978C171.718 181.209 173.521 180.184 175.574 179.158C179.626 177.132 184.84 175.002 189.001 175.002H250.001C253.315 175.002 256.001 177.689 256.001 181.002V227.002C256.001 230.316 253.315 233.002 250.001 233.002L170.364 233.002L170.358 233.002ZM148.001 212.487C148.163 223.084 156.301 231.128 164.486 231.002C165.297 230.99 166.772 230.99 168.036 230.993C168.669 230.995 169.253 230.997 169.678 230.999L170.366 231.002L250.001 231.002C252.21 231.002 254.001 229.211 254.001 227.002V202.002L152.673 202.002C152.148 202.716 151.652 203.429 151.193 204.139C149.174 207.258 147.965 210.146 148.001 212.487ZM154.217 200.002C155.597 198.292 157.1 196.609 158.612 195.019C161.334 192.157 164.065 189.62 166.116 187.798C167.142 186.887 167.996 186.156 168.593 185.653C168.891 185.402 169.125 185.208 169.284 185.077L169.409 184.975L169.465 184.929L169.486 184.911L169.578 184.852C169.667 184.794 169.8 184.709 169.973 184.601C170.318 184.383 170.822 184.071 171.451 183.696C172.711 182.946 174.471 181.946 176.468 180.947C180.517 178.923 185.356 177.002 189.001 177.002H250.001C252.21 177.002 254.001 178.793 254.001 181.002V200.002L154.217 200.002Z" fill="#4A4A4A"/>
<path fill-rule="evenodd" clip-rule="evenodd" d="M339.754 233.002L340.444 232.999C340.868 232.997 341.45 232.995 342.082 232.993C343.349 232.99 344.805 232.99 345.596 233.002C355.083 233.147 363.936 224.01 364.111 212.518C364.157 209.561 362.669 206.251 360.598 203.052C358.506 199.819 355.717 196.55 352.949 193.64C350.177 190.726 347.403 188.149 345.324 186.303C344.284 185.379 343.416 184.636 342.808 184.123C342.503 183.867 342.264 183.668 342.1 183.533C342.017 183.466 341.954 183.414 341.911 183.379L341.862 183.339L341.849 183.328L341.846 183.326L341.845 183.325C341.845 183.325 341.844 183.324 341.216 184.103L341.845 183.325L341.807 183.294L341.766 183.267L341.216 184.103C341.766 183.267 341.766 183.267 341.766 183.267L341.765 183.267L341.763 183.265L341.755 183.26L341.727 183.242C341.702 183.225 341.666 183.202 341.618 183.171C341.523 183.11 341.384 183.021 341.206 182.908C340.848 182.683 340.33 182.362 339.684 181.978C338.394 181.209 336.591 180.184 334.538 179.158C330.486 177.132 325.272 175.002 321.111 175.002H267.001C263.687 175.002 261.001 177.689 261.001 181.002V227.002C261.001 230.316 263.687 233.002 267.001 233.002L339.749 233.002L339.754 233.002ZM362.112 212.487C361.949 223.084 353.811 231.128 345.627 231.002C344.815 230.99 343.34 230.99 342.077 230.993C341.443 230.995 340.86 230.997 340.435 230.999L339.746 231.002L267.001 231.002C264.792 231.002 263.001 229.211 263.001 227.002V202.002L357.439 202.002C357.964 202.716 358.46 203.429 358.919 204.139C360.938 207.258 362.147 210.146 362.112 212.487ZM355.895 200.002C354.516 198.292 353.013 196.609 351.5 195.019C348.778 192.157 346.048 189.62 343.996 187.798C342.971 186.887 342.117 186.156 341.52 185.653C341.221 185.402 340.987 185.208 340.828 185.077L340.703 184.975L340.648 184.929L340.626 184.911L340.534 184.852C340.445 184.794 340.312 184.709 340.139 184.601C339.794 184.383 339.29 184.071 338.661 183.696C337.401 182.946 335.642 181.946 333.644 180.947C329.595 178.923 324.757 177.002 321.111 177.002H267.001C264.792 177.002 263.001 178.793 263.001 181.002V200.002L355.895 200.002Z" fill="#4A4A4A"/>
<path fill-rule="evenodd" clip-rule="evenodd" d="M170.358 40.0016L169.668 40.005C169.245 40.0069 168.663 40.0092 168.031 40.0108C166.764 40.0138 165.307 40.0138 164.516 40.0017C155.029 39.8566 146.177 48.9942 146.001 60.4863C145.956 63.4432 147.443 66.753 149.514 69.9522C151.607 73.1845 154.395 76.454 157.163 79.3638C159.935 82.2779 162.709 84.8546 164.788 86.7014C165.828 87.6254 166.696 88.3681 167.305 88.8806C167.609 89.1368 167.849 89.3356 168.013 89.4708C168.095 89.5384 168.158 89.5901 168.201 89.6251L168.25 89.6651L168.263 89.6755L168.267 89.6783L168.268 89.6791C168.268 89.6793 168.268 89.6795 168.896 88.9013L168.268 89.6791L168.306 89.7099L168.346 89.7365L168.896 88.9013C168.346 89.7365 168.346 89.7364 168.346 89.7365L168.347 89.7372L168.349 89.7386L168.357 89.7436L168.385 89.7623C168.41 89.7785 168.447 89.8021 168.494 89.8327C168.589 89.8938 168.728 89.9827 168.907 90.0955C169.265 90.3209 169.783 90.6417 170.428 91.0262C171.718 91.7945 173.521 92.8196 175.574 93.8459C179.626 95.8717 184.84 98.0016 189.001 98.0016H250.001C253.315 98.0016 256.001 95.3153 256.001 92.0016V46.0016C256.001 42.6879 253.315 40.0016 250.001 40.0016L170.364 40.0015L170.358 40.0016ZM148.001 60.5169C148.163 49.9202 156.301 41.8763 164.486 42.0015C165.297 42.0139 166.772 42.0138 168.036 42.0108C168.669 42.0092 169.253 42.0069 169.678 42.005L170.366 42.0016L250.001 42.0016C252.21 42.0016 254.001 43.7924 254.001 46.0016V71.0016L152.673 71.0016C152.148 70.2883 151.652 69.5746 151.193 68.8653C149.174 65.7463 147.965 62.8575 148.001 60.5169ZM154.217 73.0016C155.597 74.7122 157.1 76.3953 158.612 77.9853C161.334 80.8468 164.065 83.3835 166.116 85.2062C167.142 86.1169 167.996 86.848 168.593 87.3506C168.891 87.6019 169.125 87.796 169.284 87.9268L169.409 88.0294L169.465 88.0748L169.486 88.0925L169.578 88.1519C169.667 88.2095 169.8 88.2946 169.973 88.4033C170.318 88.6209 170.822 88.9329 171.451 89.3079C172.711 90.0583 174.471 91.0582 176.468 92.057C180.517 94.0813 185.356 96.0016 189.001 96.0016H250.001C252.21 96.0016 254.001 94.2107 254.001 92.0016V73.0016L154.217 73.0016Z" fill="#4A4A4A"/>
<path fill-rule="evenodd" clip-rule="evenodd" d="M339.754 40.0016L340.444 40.005C340.868 40.0069 341.45 40.0092 342.082 40.0108C343.349 40.0138 344.805 40.0138 345.596 40.0017C355.083 39.8566 363.936 48.9942 364.111 60.4863C364.157 63.4432 362.669 66.753 360.598 69.9522C358.506 73.1845 355.717 76.454 352.949 79.3638C350.177 82.2779 347.403 84.8546 345.324 86.7014C344.284 87.6254 343.416 88.3681 342.808 88.8806C342.503 89.1368 342.264 89.3356 342.1 89.4708C342.017 89.5384 341.954 89.5901 341.911 89.6251L341.862 89.6651L341.849 89.6755L341.846 89.6783L341.845 89.6791C341.845 89.6791 341.844 89.6795 341.216 88.9013L341.845 89.6791L341.807 89.7099L341.766 89.7365L341.216 88.9013C341.766 89.7365 341.766 89.7365 341.766 89.7365L341.765 89.7372L341.763 89.7386L341.755 89.7436L341.727 89.7623C341.702 89.7785 341.666 89.8021 341.618 89.8327C341.523 89.8938 341.384 89.9827 341.206 90.0955C340.848 90.3209 340.33 90.6417 339.684 91.0262C338.394 91.7945 336.591 92.8196 334.538 93.8459C330.486 95.8717 325.272 98.0016 321.111 98.0016H267.001C263.687 98.0016 261.001 95.3153 261.001 92.0016V46.0016C261.001 42.6879 263.687 40.0016 267.001 40.0016L339.749 40.0015L339.754 40.0016ZM362.112 60.5169C361.949 49.9202 353.811 41.8763 345.627 42.0015C344.815 42.0139 343.34 42.0138 342.077 42.0108C341.443 42.0092 340.86 42.0069 340.435 42.005L339.746 42.0016L267.001 42.0016C264.792 42.0016 263.001 43.7924 263.001 46.0016V71.0016L357.439 71.0016C357.964 70.2883 358.46 69.5746 358.919 68.8653C360.938 65.7463 362.147 62.8575 362.112 60.5169ZM355.895 73.0016C354.516 74.7122 353.013 76.3953 351.5 77.9853C348.778 80.8468 346.048 83.3835 343.996 85.2062C342.971 86.1169 342.117 86.848 341.52 87.3506C341.221 87.6019 340.987 87.796 340.828 87.9268L340.703 88.0294L340.648 88.0748L340.626 88.0925L340.534 88.1519C340.445 88.2095 340.312 88.2946 340.139 88.4033C339.794 88.6209 339.29 88.9329 338.661 89.3079C337.401 90.0583 335.642 91.0582 333.644 92.057C329.595 94.0813 324.757 96.0016 321.111 96.0016H267.001C264.792 96.0016 263.001 94.2107 263.001 92.0016V73.0016L355.895 73.0016Z" fill="#4A4A4A"/>
<path d="M51.5 94.52C52 92.02 52.5 90.02 56.5 88.52L116.5 81.02C118.709 81.02 121 80.52 120.5 84.52C120.5 84.52 115.094 115.749 115 136.02C114.902 157.066 120.5 188.52 120.5 188.52C120.5 190.729 120 191.52 116 191.02L58.5 186.02C56.2909 186.02 52 183.02 51.5 180.52C51.5 180.52 48.0627 154.284 48 138.02C47.9344 120.977 51.5 94.52 51.5 94.52Z" stroke="#4A4A4A" stroke-width="3"/>
<path d="M127.069 100.565C127.569 97.5655 130.069 80.5654 133.069 81.0655L166.069 95.5655C170.069 97.5655 170.569 99.0655 170.069 101.565C170.069 101.565 164.703 123.651 164.569 138.065C164.447 151.24 168.569 171.565 168.569 171.565C169.069 174.565 168.569 175.565 164.069 177.565L133.069 191.065C130.069 192.065 127.569 176.565 127.069 173.565C127.069 173.565 123.569 151.385 123.569 137.065C123.569 122.746 127.069 100.565 127.069 100.565Z" stroke="#4A4A4A" stroke-width="3"/>
<path d="M383.5 100.564C383 97.5639 380 83.5638 377 84.0638L346.82 95.5747C342.82 97.5747 342.32 99.0747 342.82 101.575C342.82 101.575 348.186 123.66 348.32 138.075C348.442 151.25 344.32 171.575 344.32 171.575C343.82 174.575 344.32 175.575 348.82 177.575L378.5 188.064C381.5 189.064 384.5 174.575 385 171.575C385 171.575 388.5 149.383 388.5 135.064C388.5 120.744 383.5 100.564 383.5 100.564Z" stroke="#4A4A4A" stroke-width="3"/>
<path d="M471.001 94.02C470.501 91.52 470.001 89.52 466.001 88.02L393.569 81.02C391.36 81.02 389.069 80.52 389.569 84.52C389.569 84.52 394.975 115.749 395.069 136.02C395.167 157.066 389.569 188.52 389.569 188.52C389.569 190.729 390.069 191.52 394.069 191.02L464.001 185.52C466.21 185.52 470.501 182.52 471.001 180.02C471.001 180.02 474.439 153.784 474.501 137.52C474.567 120.477 471.001 94.02 471.001 94.02Z" stroke="#4A4A4A" stroke-width="3"/>
<path d="M243.029 126C242.009 126 241.169 125.838 240.509 125.514C239.849 125.19 239.357 124.698 239.033 124.038C238.721 123.378 238.565 122.544 238.565 121.536C238.565 120.528 238.721 119.688 239.033 119.016C239.357 118.332 239.849 117.822 240.509 117.486C241.169 117.138 242.009 116.964 243.029 116.964H247.097V124.866H244.685V118.53L245.279 119.052H243.029C242.537 119.052 242.141 119.112 241.841 119.232C241.541 119.34 241.319 119.574 241.175 119.934C241.043 120.282 240.977 120.816 240.977 121.536C240.977 122.22 241.037 122.736 241.157 123.084C241.289 123.42 241.505 123.642 241.805 123.75C242.105 123.858 242.513 123.912 243.029 123.912H248.987V126H243.029ZM248.987 126V123.912C249.059 123.912 249.113 123.936 249.149 123.984C249.197 124.032 249.233 124.104 249.257 124.2C249.293 124.296 249.317 124.41 249.329 124.542C249.341 124.662 249.347 124.8 249.347 124.956C249.347 125.112 249.341 125.256 249.329 125.388C249.317 125.52 249.293 125.634 249.257 125.73C249.233 125.814 249.197 125.88 249.149 125.928C249.113 125.976 249.059 126 248.987 126ZM240.347 115.308V113.256H242.669V115.308H240.347ZM243.623 115.308V113.256H245.945V115.308H243.623ZM251.384 126V113.274H253.796V126H251.384ZM249.35 126V123.912H251.384V126H249.35ZM249.35 126C249.278 126 249.224 125.976 249.188 125.928C249.14 125.88 249.104 125.814 249.08 125.73C249.044 125.634 249.02 125.52 249.008 125.388C248.996 125.256 248.99 125.112 248.99 124.956C248.99 124.74 249.002 124.56 249.026 124.416C249.05 124.26 249.092 124.14 249.152 124.056C249.2 123.96 249.266 123.912 249.35 123.912V126ZM259.437 126V123.912H261.489V126H259.437ZM257.043 126V113.274H259.437V126H257.043ZM261.489 126V123.912C261.561 123.912 261.615 123.936 261.651 123.984C261.699 124.032 261.735 124.104 261.759 124.2C261.795 124.296 261.819 124.41 261.831 124.542C261.843 124.662 261.849 124.8 261.849 124.956C261.849 125.112 261.843 125.256 261.831 125.388C261.819 125.52 261.795 125.634 261.759 125.73C261.735 125.814 261.699 125.88 261.651 125.928C261.615 125.976 261.561 126 261.489 126ZM271.171 126V123.912H273.079V126H271.171ZM261.847 126C261.775 126 261.721 125.976 261.685 125.928C261.637 125.88 261.601 125.814 261.577 125.73C261.541 125.634 261.517 125.52 261.505 125.388C261.493 125.256 261.487 125.112 261.487 124.956C261.487 124.74 261.499 124.56 261.523 124.416C261.547 124.26 261.589 124.14 261.649 124.056C261.697 123.96 261.763 123.912 261.847 123.912V126ZM261.847 126V123.912H269.587L268.777 124.578V121.248C268.777 120.528 268.549 119.982 268.093 119.61C267.649 119.238 266.941 119.052 265.969 119.052C265.693 119.052 265.315 119.076 264.835 119.124C264.355 119.16 263.833 119.22 263.269 119.304L263.035 117.396C263.551 117.276 264.073 117.174 264.601 117.09C265.141 117.006 265.669 116.964 266.185 116.964C267.169 116.964 268.033 117.138 268.777 117.486C269.521 117.822 270.103 118.308 270.523 118.944C270.955 119.58 271.171 120.348 271.171 121.248V126H261.847ZM273.079 126V123.912C273.139 123.912 273.193 123.936 273.241 123.984C273.289 124.032 273.325 124.104 273.349 124.2C273.373 124.296 273.391 124.41 273.403 124.542C273.427 124.662 273.439 124.8 273.439 124.956C273.439 125.112 273.427 125.256 273.403 125.388C273.391 125.52 273.373 125.634 273.349 125.73C273.325 125.814 273.289 125.88 273.241 125.928C273.193 125.976 273.139 126 273.079 126ZM275.473 126V113.274H277.885V126H275.473ZM273.439 126V123.912H275.473V126H273.439ZM273.439 126C273.367 126 273.313 125.976 273.277 125.928C273.229 125.88 273.193 125.814 273.169 125.73C273.133 125.634 273.109 125.52 273.097 125.388C273.085 125.256 273.079 125.112 273.079 124.956C273.079 124.74 273.091 124.56 273.115 124.416C273.139 124.26 273.181 124.14 273.241 124.056C273.289 123.96 273.355 123.912 273.439 123.912V126ZM281.132 126V113.274H283.526V126H281.132ZM203.973 160V155.914C203.973 154.726 204.159 153.772 204.531 153.052C204.903 152.32 205.455 151.792 206.187 151.468C206.919 151.132 207.819 150.964 208.887 150.964C209.967 150.964 210.873 151.132 211.605 151.468C212.337 151.792 212.889 152.32 213.261 153.052C213.633 153.772 213.819 154.726 213.819 155.914V160H203.973ZM206.385 158.992L205.233 157.912H212.559L211.425 158.992V155.968C211.425 155.248 211.353 154.678 211.209 154.258C211.065 153.826 210.807 153.52 210.435 153.34C210.075 153.148 209.559 153.052 208.887 153.052C208.227 153.052 207.711 153.148 207.339 153.34C206.979 153.52 206.727 153.826 206.583 154.258C206.451 154.678 206.385 155.248 206.385 155.968V158.992ZM206.097 149.308V147.256H208.419V149.308H206.097ZM209.373 149.308V147.256H211.695V149.308H209.373ZM215.582 164.464C215.426 164.464 215.258 164.458 215.078 164.446C214.898 164.434 214.712 164.416 214.52 164.392L214.61 162.34C214.802 162.352 214.982 162.364 215.15 162.376C215.33 162.388 215.462 162.394 215.546 162.394C216.014 162.394 216.386 162.208 216.662 161.836C216.95 161.464 217.094 160.942 217.094 160.27V150.964H219.506V160.27C219.506 161.086 219.338 161.812 219.002 162.448C218.678 163.084 218.222 163.576 217.634 163.924C217.046 164.284 216.362 164.464 215.582 164.464ZM225.09 160V157.912H227.142V160H225.09ZM222.696 160V147.274H225.09V160H222.696ZM227.142 160V157.912C227.214 157.912 227.268 157.936 227.304 157.984C227.352 158.032 227.388 158.104 227.412 158.2C227.448 158.296 227.472 158.41 227.484 158.542C227.496 158.662 227.502 158.8 227.502 158.956C227.502 159.112 227.496 159.256 227.484 159.388C227.472 159.52 227.448 159.634 227.412 159.73C227.388 159.814 227.352 159.88 227.304 159.928C227.268 159.976 227.214 160 227.142 160ZM232.757 160V157.912H235.007V160H232.757ZM235.007 160V157.912C235.067 157.912 235.121 157.936 235.169 157.984C235.217 158.032 235.253 158.104 235.277 158.2C235.301 158.296 235.319 158.41 235.331 158.542C235.355 158.662 235.367 158.8 235.367 158.956C235.367 159.112 235.355 159.256 235.331 159.388C235.319 159.52 235.301 159.634 235.277 159.73C235.253 159.814 235.217 159.88 235.169 159.928C235.133 159.976 235.079 160 235.007 160ZM227.501 160C227.429 160 227.375 159.976 227.339 159.928C227.291 159.88 227.255 159.814 227.231 159.73C227.195 159.634 227.171 159.52 227.159 159.388C227.147 159.256 227.141 159.112 227.141 158.956C227.141 158.74 227.153 158.56 227.177 158.416C227.201 158.26 227.243 158.14 227.303 158.056C227.351 157.96 227.417 157.912 227.501 157.912V160ZM227.501 160V157.912H231.767L230.363 159.082V150.964H232.757V160H227.501ZM228.149 163.834V161.782H230.471V163.834H228.149ZM231.425 163.834V161.782H233.747V163.834H231.425ZM250.469 160V157.912H252.377V160H250.469ZM235.367 160C235.295 160 235.241 159.976 235.205 159.928C235.157 159.88 235.121 159.814 235.097 159.73C235.061 159.634 235.037 159.52 235.025 159.388C235.013 159.256 235.007 159.112 235.007 158.956C235.007 158.74 235.019 158.56 235.043 158.416C235.067 158.26 235.109 158.14 235.169 158.056C235.217 157.96 235.283 157.912 235.367 157.912V160ZM245.951 160C245.459 160 244.967 159.91 244.475 159.73C243.995 159.538 243.551 159.256 243.143 158.884L244.619 157.354C244.859 157.546 245.081 157.69 245.285 157.786C245.501 157.87 245.723 157.912 245.951 157.912H249.317L248.075 159.046V155.05C248.075 154.858 248.051 154.57 248.003 154.186C247.967 153.79 247.907 153.346 247.823 152.854C247.751 152.35 247.661 151.84 247.553 151.324L249.929 150.964C250.013 151.396 250.091 151.882 250.163 152.422C250.247 152.95 250.319 153.454 250.379 153.934C250.439 154.402 250.469 154.774 250.469 155.05V160H245.951ZM235.367 160V157.912H237.995L237.455 158.47V152.8H239.867V160H235.367ZM239.867 160V157.912H241.325C241.709 157.912 242.003 157.858 242.207 157.75C242.411 157.63 242.549 157.396 242.621 157.048C242.705 156.688 242.747 156.154 242.747 155.446V151.9H245.159V155.446C245.159 156.514 245.021 157.384 244.745 158.056C244.481 158.728 244.067 159.22 243.503 159.532C242.939 159.844 242.213 160 241.325 160H239.867ZM252.377 160V157.912C252.437 157.912 252.491 157.936 252.539 157.984C252.587 158.032 252.623 158.104 252.647 158.2C252.671 158.296 252.689 158.41 252.701 158.542C252.725 158.662 252.737 158.8 252.737 158.956C252.737 159.112 252.725 159.256 252.701 159.388C252.689 159.52 252.671 159.634 252.647 159.73C252.623 159.814 252.587 159.88 252.539 159.928C252.491 159.976 252.437 160 252.377 160ZM257.188 160V157.912H259.078V160H257.188ZM252.742 160C252.67 160 252.616 159.976 252.58 159.928C252.532 159.88 252.496 159.814 252.472 159.73C252.436 159.634 252.412 159.52 252.4 159.388C252.388 159.256 252.382 159.112 252.382 158.956C252.382 158.74 252.394 158.56 252.418 158.416C252.442 158.26 252.484 158.14 252.544 158.056C252.592 157.96 252.658 157.912 252.742 157.912V160ZM254.776 160V147.274H257.188V160H254.776ZM252.742 160V157.912H254.776V160H252.742ZM259.078 160V157.912C259.15 157.912 259.21 157.936 259.258 157.984C259.306 158.032 259.342 158.104 259.366 158.2C259.39 158.296 259.408 158.41 259.42 158.542C259.432 158.662 259.438 158.8 259.438 158.956C259.438 159.112 259.432 159.256 259.42 159.388C259.408 159.52 259.39 159.634 259.366 159.73C259.342 159.814 259.306 159.88 259.258 159.928C259.21 159.976 259.15 160 259.078 160ZM261.464 160V147.274H263.876V160H261.464ZM259.43 160V157.912H261.464V160H259.43ZM259.43 160C259.358 160 259.304 159.976 259.268 159.928C259.22 159.88 259.184 159.814 259.16 159.73C259.124 159.634 259.1 159.52 259.088 159.388C259.076 159.256 259.07 159.112 259.07 158.956C259.07 158.74 259.082 158.56 259.106 158.416C259.13 158.26 259.172 158.14 259.232 158.056C259.28 157.96 259.346 157.912 259.43 157.912V160ZM274.967 160C273.947 160 273.107 159.838 272.447 159.514C271.787 159.19 271.295 158.698 270.971 158.038C270.659 157.378 270.503 156.544 270.503 155.536C270.503 154.528 270.659 153.688 270.971 153.016C271.295 152.332 271.787 151.822 272.447 151.486C273.107 151.138 273.947 150.964 274.967 150.964H279.035V158.866H276.623V152.53L277.217 153.052H274.967C274.475 153.052 274.079 153.112 273.779 153.232C273.479 153.34 273.257 153.574 273.113 153.934C272.981 154.282 272.915 154.816 272.915 155.536C272.915 156.22 272.975 156.736 273.095 157.084C273.227 157.42 273.443 157.642 273.743 157.75C274.043 157.858 274.451 157.912 274.967 157.912H280.925V160H274.967ZM280.925 160V157.912C280.997 157.912 281.051 157.936 281.087 157.984C281.135 158.032 281.171 158.104 281.195 158.2C281.231 158.296 281.255 158.41 281.267 158.542C281.279 158.662 281.285 158.8 281.285 158.956C281.285 159.112 281.279 159.256 281.267 159.388C281.255 159.52 281.231 159.634 281.195 159.73C281.171 159.814 281.135 159.88 281.087 159.928C281.051 159.976 280.997 160 280.925 160ZM272.285 149.308V147.256H274.607V149.308H272.285ZM275.561 149.308V147.256H277.883V149.308H275.561ZM286.544 160V157.912H288.794V160H286.544ZM288.794 160V157.912C288.854 157.912 288.908 157.936 288.956 157.984C289.004 158.032 289.04 158.104 289.064 158.2C289.088 158.296 289.106 158.41 289.118 158.542C289.142 158.662 289.154 158.8 289.154 158.956C289.154 159.112 289.142 159.256 289.118 159.388C289.106 159.52 289.088 159.634 289.064 159.73C289.04 159.814 289.004 159.88 288.956 159.928C288.92 159.976 288.866 160 288.794 160ZM281.288 160C281.216 160 281.162 159.976 281.126 159.928C281.078 159.88 281.042 159.814 281.018 159.73C280.982 159.634 280.958 159.52 280.946 159.388C280.934 159.256 280.928 159.112 280.928 158.956C280.928 158.74 280.94 158.56 280.964 158.416C280.988 158.26 281.03 158.14 281.09 158.056C281.138 157.96 281.204 157.912 281.288 157.912V160ZM281.288 160V157.912H285.554L284.15 159.082V150.964H286.544V160H281.288ZM281.936 163.834V161.782H284.258V163.834H281.936ZM285.212 163.834V161.782H287.534V163.834H285.212ZM293.456 160V157.912H295.346V160H293.456ZM289.154 160C289.082 160 289.028 159.976 288.992 159.928C288.944 159.88 288.908 159.814 288.884 159.73C288.848 159.634 288.824 159.52 288.812 159.388C288.8 159.256 288.794 159.112 288.794 158.956C288.794 158.74 288.806 158.56 288.83 158.416C288.854 158.26 288.896 158.14 288.956 158.056C289.004 157.96 289.07 157.912 289.154 157.912V160ZM289.154 160V157.912H292.448L291.044 159.082V150.964H293.456V160H289.154ZM295.346 160V157.912C295.418 157.912 295.478 157.936 295.526 157.984C295.574 158.032 295.61 158.104 295.634 158.2C295.658 158.296 295.676 158.41 295.688 158.542C295.7 158.662 295.706 158.8 295.706 158.956C295.706 159.112 295.7 159.256 295.688 159.388C295.676 159.52 295.658 159.634 295.634 159.73C295.61 159.814 295.574 159.88 295.526 159.928C295.478 159.976 295.418 160 295.346 160ZM291.044 149.308V147.256H293.456V149.308H291.044ZM305.781 160V157.912H307.671V160H305.781ZM295.701 160C295.629 160 295.575 159.976 295.539 159.928C295.491 159.88 295.455 159.814 295.431 159.73C295.395 159.634 295.371 159.52 295.359 159.388C295.347 159.256 295.341 159.112 295.341 158.956C295.341 158.74 295.353 158.56 295.377 158.416C295.401 158.26 295.443 158.14 295.503 158.056C295.551 157.96 295.617 157.912 295.701 157.912V160ZM295.701 160V157.912H304.107L303.369 158.542V152.53L303.981 153.052H301.713C301.185 153.052 300.771 153.118 300.471 153.25C300.171 153.382 299.961 153.628 299.841 153.988C299.721 154.336 299.661 154.834 299.661 155.482C299.661 156.19 299.721 156.718 299.841 157.066C299.961 157.402 300.171 157.63 300.471 157.75C300.771 157.858 301.185 157.912 301.713 157.912V159.784C300.693 159.784 299.853 159.64 299.193 159.352C298.533 159.064 298.041 158.608 297.717 157.984C297.405 157.348 297.249 156.514 297.249 155.482C297.249 154.498 297.405 153.67 297.717 152.998C298.041 152.326 298.533 151.822 299.193 151.486C299.853 151.138 300.693 150.964 301.713 150.964H305.781V160H295.701ZM307.671 160V157.912C307.743 157.912 307.803 157.936 307.851 157.984C307.899 158.032 307.935 158.104 307.959 158.2C307.983 158.296 308.001 158.41 308.013 158.542C308.025 158.662 308.031 158.8 308.031 158.956C308.031 159.112 308.025 159.256 308.013 159.388C308.001 159.52 307.983 159.634 307.959 159.73C307.935 159.814 307.899 159.88 307.851 159.928C307.803 159.976 307.743 160 307.671 160ZM300.759 149.308V147.256H303.171V149.308H300.759ZM310.066 160V147.274H312.478V160H310.066ZM308.032 160V157.912H310.066V160H308.032ZM308.032 160C307.96 160 307.906 159.976 307.87 159.928C307.822 159.88 307.786 159.814 307.762 159.73C307.726 159.634 307.702 159.52 307.69 159.388C307.678 159.256 307.672 159.112 307.672 158.956C307.672 158.74 307.684 158.56 307.708 158.416C307.732 158.26 307.774 158.14 307.834 158.056C307.882 157.96 307.948 157.912 308.032 157.912V160ZM315.725 160V147.274H318.119V160H315.725Z" fill="#39629C"/>
<path d="M27.2333 92.5L27.5644 87.5344C27.8095 83.8573 30.8636 81 34.5489 81H42.0594C42.757 81 43.2402 81.6961 42.9963 82.3496L39.2083 92.5M27.2333 92.5L27 96V105.5C27 108.261 29.2386 110.5 32 110.5H34C36.7614 110.5 39 108.261 39 105.5V93.5417C39 93.1841 39.0708 92.8301 39.2083 92.5M27.2333 92.5H39.2083" stroke="#4A4A4A" stroke-width="2"/>
<path d="M27.2333 179.5L27.5644 184.466C27.8095 188.143 30.8636 191 34.5489 191H42.0594C42.757 191 43.2402 190.304 42.9963 189.65L39.2083 179.5M27.2333 179.5L27 176V166.5C27 163.739 29.2386 161.5 32 161.5H34C36.7614 161.5 39 163.739 39 166.5V178.458C39 178.816 39.0708 179.17 39.2083 179.5M27.2333 179.5H39.2083" stroke="#4A4A4A" stroke-width="2"/>
<path d="M483 84C483 80.6863 485.686 78 489 78H501C504.314 78 507 80.6863 507 84V187C507 190.314 504.314 193 501 193H489C485.686 193 483 190.314 483 187V84Z" stroke="#4A4A4A" stroke-width="2.5"/>
<circle cx="495" cy="93" r="7" stroke="#4A4A4A" stroke-width="2"/>
<circle cx="495" cy="111" r="7" stroke="#4A4A4A" stroke-width="2"/>
<circle cx="495" cy="160.5" r="7" stroke="#4A4A4A" stroke-width="2"/>
<circle cx="495" cy="178.5" r="7" stroke="#4A4A4A" stroke-width="2"/>
</svg>
