<svg width="24" height="24" viewBox="0 0 24 24" fill="none" xmlns="http://www.w3.org/2000/svg">
<g clip-path="url(#clip0_1053_361)">
<path d="M18.5093 20C18.1118 20 17.764 19.8509 17.4658 19.5528L4.4472 6.53416C3.85093 5.93789 3.85093 4.99379 4.4472 4.4472C5.04348 3.85093 5.98758 3.85093 6.53416 4.4472L19.5528 17.4161C20.1491 18.0124 20.1491 18.9565 19.5528 19.5031C19.2547 19.8509 18.8571 20 18.5093 20Z" fill="#FF9626"/>
<path d="M5.49068 20C5.09317 20 4.74534 19.8509 4.44721 19.5528C3.85093 18.9565 3.85093 18.0124 4.44721 17.4658L17.4162 4.4472C18.0124 3.85093 18.9565 3.85093 19.5031 4.4472C20.0994 5.04348 20.0994 5.98758 19.5031 6.53416L6.53416 19.5528C6.23602 19.8509 5.8882 20 5.49068 20Z" fill="#FF9626"/>
</g>
<defs>
<clipPath id="clip0_1053_361">
<rect width="16" height="16" fill="white" transform="translate(4 4)"/>
</clipPath>
</defs>
</svg>
