<svg width="60" height="60" viewBox="0 0 60 60" fill="none" xmlns="http://www.w3.org/2000/svg">
<g filter="url(#filter0_d_1067_324)">
<rect x="4" y="3" width="52" height="52" rx="8" fill="white"/>
<g clip-path="url(#clip0_1067_324)">
<path d="M25.9602 29.48C25.9602 26.37 25.9602 23.25 25.9602 20.14C26.6202 19.85 27.2802 19.57 27.8302 19.11C28.0302 18.95 28.2302 18.91 28.4702 18.91C29.1202 18.9 29.7602 19.09 30.4502 18.97C30.2502 18.33 30.0502 17.71 29.8502 17.1C29.7802 16.89 29.7902 16.72 29.8802 16.52C30.6102 14.89 30.6502 13.22 30.1002 11.52C37.5002 11.52 44.9102 11.52 52.3102 11.51C52.7702 11.51 52.9102 11.6 52.9102 12.09C52.8902 24.19 52.9002 36.28 52.9102 48.38C52.9102 48.84 52.7802 48.95 52.3302 48.94C49.5202 48.92 46.7202 48.94 43.9102 48.94C42.6002 48.94 41.3002 48.94 39.9902 48.94C39.7902 48.94 39.5902 48.93 39.3802 48.93C35.0702 48.93 30.7502 48.92 26.4402 48.94C26.0602 48.94 25.9402 48.84 25.9402 48.45C25.9602 46.61 25.9402 44.78 25.9402 42.94C25.9502 38.45 25.9602 33.96 25.9602 29.48ZM42.1902 28.73C43.0502 28.73 43.7202 28.73 44.3902 28.73C45.4302 28.73 45.4202 28.73 45.4302 27.67C45.4302 27.31 45.3202 27.22 44.9802 27.23C43.3402 27.25 41.7102 27.25 40.0702 27.23C38.1302 27.21 36.3602 25.79 35.8602 23.92C35.6402 23.07 35.7002 22.22 35.6902 21.37C35.6802 20.31 35.9702 19.33 36.6402 18.51C37.8202 17.07 39.3602 16.48 41.1702 16.89C42.8602 17.27 43.9802 18.36 44.4902 20.04C44.8102 21.11 44.6402 22.21 44.6702 23.29C44.6902 23.88 44.3902 24.24 43.9302 24.25C43.4402 24.26 43.1802 23.92 43.1702 23.28C43.1702 22.59 43.1702 21.91 43.1702 21.22C43.1602 19.58 41.8302 18.27 40.1802 18.27C38.5302 18.27 37.2002 19.58 37.1802 21.22C37.1802 21.73 37.1702 22.25 37.1802 22.76C37.1902 23.96 37.7402 24.86 38.7802 25.41C39.8502 25.97 40.9202 25.89 41.9002 25.17C42.1502 24.99 42.2702 25.03 42.4802 25.21C43.1502 25.79 43.9302 25.92 44.7502 25.59C45.5402 25.27 46.0802 24.64 46.1202 23.79C46.1802 22.6 46.2502 21.39 46.0502 20.2C45.6202 17.61 43.3502 15.51 40.7502 15.29C38.0002 15.05 35.4302 16.7 34.5202 19.24C34.0902 20.42 34.1802 21.63 34.1802 22.84C34.1802 25.51 36.1002 27.92 38.6902 28.57C39.9202 28.85 41.1602 28.66 42.1902 28.73ZM39.4502 34.71C36.0102 34.71 32.5702 34.71 29.1202 34.71C28.2102 34.71 28.2302 34.71 28.2002 35.62C28.1802 36.09 28.3002 36.22 28.7902 36.22C35.7502 36.2 42.7102 36.21 49.6802 36.21C50.6702 36.21 50.6402 36.21 50.6702 35.23C50.6902 34.77 50.5002 34.7 50.1102 34.7C46.5502 34.72 43.0002 34.71 39.4502 34.71ZM39.4602 40.7C36.0002 40.7 32.5402 40.7 29.0902 40.7C28.2202 40.7 28.2202 40.7 28.2202 41.6C28.2202 42.2 28.2202 42.2 28.8302 42.2C35.7902 42.2 42.7502 42.2 49.7202 42.2C50.6702 42.2 50.6302 42.2 50.6802 41.28C50.7002 40.79 50.5302 40.69 50.0802 40.7C46.5302 40.71 43.0002 40.7 39.4602 40.7ZM37.8902 45.19C40.8502 45.19 43.8102 45.19 46.7702 45.19C47.6702 45.19 47.6402 45.19 47.6802 44.27C47.7002 43.78 47.5502 43.68 47.0802 43.68C41.1202 43.7 35.1502 43.69 29.1902 43.69C28.2102 43.69 28.2402 43.69 28.2102 44.68C28.2002 45.1 28.3302 45.2 28.7402 45.2C31.7802 45.18 34.8302 45.19 37.8902 45.19ZM36.4702 37.71C34.0102 37.71 31.5502 37.71 29.0902 37.71C28.2102 37.71 28.2102 37.71 28.2202 38.61C28.2202 39.21 28.2202 39.21 28.8302 39.21C33.7802 39.21 38.7302 39.21 43.6902 39.21C44.6902 39.21 44.6702 39.21 44.6902 38.2C44.7002 37.8 44.5602 37.71 44.1802 37.71C41.6102 37.71 39.0402 37.71 36.4702 37.71ZM33.4002 33.22C34.8302 33.22 36.2602 33.22 37.7002 33.22C38.7002 33.22 38.6802 33.22 38.7002 32.21C38.7102 31.81 38.5802 31.72 38.2002 31.72C35.2102 31.73 32.2202 31.73 29.2302 31.73C28.2002 31.73 28.2202 31.73 28.2102 32.77C28.2002 33.15 28.3302 33.24 28.6902 33.24C30.2502 33.21 31.8302 33.22 33.4002 33.22ZM50.6602 44.46C50.6502 43.64 50.7702 43.69 50.0402 43.69C49.0902 43.7 49.1702 43.57 49.1702 44.3C49.1702 45.28 49.0402 45.18 49.8202 45.18C50.7702 45.18 50.6502 45.31 50.6602 44.46Z" fill="#EAF6FD"/>
<path d="M8.1601 51.88C7.9401 51.89 8.0101 51.72 8.0101 51.62C8.0101 44.34 8.0101 37.07 8.0101 29.79C8.0101 29.67 7.9401 29.48 8.1801 29.5C8.2001 29.62 8.2801 29.68 8.3701 29.75C13.1101 33.3 17.8401 36.85 22.5801 40.4C22.7201 40.5 22.8801 40.58 22.8801 40.78C22.7401 40.88 22.6001 40.97 22.4601 41.07C18.3701 44.13 14.2801 47.19 10.2101 50.27C9.5101 50.8 8.7701 51.25 8.1601 51.88Z" fill="#F4B85B"/>
<path d="M8.16016 51.88C8.76016 51.25 9.51016 50.8 10.2002 50.28C14.2802 47.21 18.3702 44.15 22.4502 41.08C22.5902 40.98 22.7302 40.88 22.8702 40.79C23.1002 40.75 23.2502 40.91 23.4102 41.02C24.2602 41.65 25.1102 42.29 25.9502 42.93C25.9502 44.77 25.9702 46.6 25.9502 48.44C25.9502 48.84 26.0702 48.93 26.4502 48.93C30.7602 48.92 35.0802 48.92 39.3902 48.92C39.5902 48.92 39.7902 48.93 40.0002 48.93C40.5602 49.36 41.1302 49.79 41.6902 50.24C42.3802 50.79 43.1502 51.24 43.7702 51.87C43.5702 51.88 43.3702 51.91 43.1702 51.91C31.6902 51.91 20.2102 51.91 8.72016 51.91C8.53016 51.92 8.35016 51.9 8.16016 51.88Z" fill="#FAE2BB"/>
<path d="M30.1 11.51C30.64 13.2 30.61 14.87 29.88 16.51C29.79 16.71 29.78 16.89 29.85 17.09C30.06 17.7 30.25 18.32 30.45 18.96C29.76 19.08 29.12 18.88 28.47 18.9C28.23 18.9 28.03 18.94 27.83 19.1C27.27 19.56 26.61 19.85 25.96 20.13C24.06 20.72 22.22 20.62 20.45 19.65C16.73 17.63 15.8 12.54 18.58 9.38001C21.99 5.51001 27.98 6.49001 29.98 11.25C30.03 11.34 30.06 11.43 30.1 11.51Z" fill="#24E51A"/>
<path d="M22.7624 15.0849C22.8208 15.0134 22.8483 14.9691 22.8861 14.9351C24.1197 13.7127 25.3534 12.4903 26.5836 11.2679C26.8448 11.0092 27.1472 10.9308 27.4909 11.0602C27.9891 11.2509 28.1575 11.8706 27.8345 12.2928C27.7898 12.3507 27.7383 12.4018 27.6867 12.4529C26.2606 13.8659 24.8311 15.2824 23.405 16.6955C22.996 17.1007 22.5321 17.1007 22.1198 16.6921C21.4943 16.0724 20.8655 15.4526 20.2435 14.8329C20.0201 14.6082 19.9479 14.3358 20.0373 14.0362C20.1266 13.7365 20.3363 13.5425 20.6455 13.4744C20.9342 13.4131 21.1885 13.4914 21.4015 13.6991C21.8208 14.1145 22.24 14.5299 22.6593 14.9453C22.6902 14.9794 22.7142 15.0202 22.7624 15.0849Z" fill="white"/>
<path d="M25.9502 42.93C25.1002 42.29 24.2602 41.65 23.4102 41.02C23.2602 40.91 23.1002 40.75 22.8702 40.79C22.8702 40.58 22.7102 40.51 22.5702 40.41C17.8302 36.86 13.1002 33.31 8.36017 29.76C8.27017 29.69 8.19017 29.63 8.17017 29.51C8.32017 29.5 8.48017 29.48 8.63017 29.48C14.4002 29.48 20.1702 29.48 25.9402 29.48C25.9602 33.96 25.9502 38.45 25.9502 42.93Z" fill="#F8D08E"/>
<path d="M43.7701 51.88C43.1501 51.25 42.3801 50.8 41.6901 50.25C41.1401 49.8 40.5701 49.38 40.0001 48.94C41.3101 48.94 42.6101 48.94 43.9201 48.94C43.9201 49.8 43.9301 50.67 43.9201 51.53C43.9201 51.65 44.0401 51.86 43.7701 51.88Z" fill="#F4B85B"/>
<path d="M42.1902 28.73C41.1602 28.67 39.9302 28.85 38.7102 28.55C36.1202 27.9 34.2002 25.49 34.2002 22.82C34.2002 21.61 34.1202 20.4 34.5402 19.22C35.4602 16.68 38.0202 15.03 40.7702 15.27C43.3602 15.5 45.6302 17.6 46.0702 20.18C46.2702 21.37 46.1902 22.58 46.1402 23.77C46.1002 24.62 45.5602 25.24 44.7702 25.57C43.9602 25.9 43.1702 25.77 42.5002 25.19C42.2902 25.01 42.1702 24.97 41.9202 25.15C40.9402 25.87 39.8702 25.95 38.8002 25.39C37.7502 24.84 37.2102 23.94 37.2002 22.74C37.1902 22.23 37.2002 21.71 37.2002 21.2C37.2102 19.56 38.5502 18.25 40.2002 18.25C41.8502 18.25 43.1702 19.56 43.1902 21.2C43.2002 21.89 43.1902 22.57 43.1902 23.26C43.1902 23.9 43.4602 24.24 43.9502 24.23C44.4002 24.22 44.7002 23.86 44.6902 23.27C44.6602 22.19 44.8302 21.09 44.5102 20.02C44.0102 18.34 42.8802 17.25 41.1902 16.87C39.3802 16.46 37.8402 17.05 36.6602 18.49C35.9902 19.32 35.7002 20.29 35.7102 21.35C35.7202 22.2 35.6502 23.05 35.8802 23.9C36.3802 25.77 38.1502 27.19 40.0902 27.21C41.7302 27.23 43.3602 27.22 45.0002 27.21C45.3502 27.21 45.4502 27.3 45.4502 27.65C45.4402 28.71 45.4602 28.71 44.4102 28.71C43.7202 28.73 43.0502 28.73 42.1902 28.73ZM41.6802 22.06C41.6802 21.71 41.6902 21.43 41.6802 21.15C41.6402 20.37 40.9902 19.76 40.2102 19.75C39.4002 19.74 38.7302 20.35 38.7002 21.15C38.6802 21.71 38.6802 22.27 38.7002 22.83C38.7302 23.53 39.2902 24.13 39.9802 24.23C40.6902 24.33 41.3802 23.89 41.6102 23.2C41.7402 22.8 41.6402 22.39 41.6802 22.06Z" fill="#F8D08E"/>
<path d="M39.4501 34.71C43.0001 34.71 46.5501 34.72 50.1001 34.7C50.5001 34.7 50.6801 34.76 50.6601 35.23C50.6301 36.21 50.6501 36.21 49.6701 36.21C42.7101 36.21 35.7401 36.2 28.7801 36.22C28.2901 36.22 28.1701 36.09 28.1901 35.62C28.2301 34.71 28.2001 34.71 29.1101 34.71C32.5701 34.71 36.0101 34.71 39.4501 34.71Z" fill="#FEFEFE"/>
<path d="M39.4602 40.7C43.0002 40.7 46.5302 40.71 50.0702 40.69C50.5302 40.69 50.7002 40.78 50.6702 41.27C50.6302 42.19 50.6602 42.19 49.7102 42.19C42.7502 42.19 35.7902 42.19 28.8202 42.19C28.2102 42.19 28.2102 42.19 28.2102 41.59C28.2102 40.69 28.2102 40.69 29.0802 40.69C32.5402 40.7 36.0002 40.7 39.4602 40.7Z" fill="#FEFEFE"/>
<path d="M37.8902 45.19C34.8402 45.19 31.7802 45.18 28.7302 45.2C28.3302 45.2 28.1902 45.11 28.2002 44.68C28.2302 43.69 28.2102 43.69 29.1802 43.69C35.1402 43.69 41.1102 43.69 47.0702 43.68C47.5402 43.68 47.6902 43.78 47.6702 44.27C47.6302 45.19 47.6602 45.19 46.7602 45.19C43.8002 45.19 40.8502 45.19 37.8902 45.19Z" fill="#FEFEFE"/>
<path d="M36.4702 37.71C39.0402 37.71 41.6102 37.72 44.1802 37.7C44.5602 37.7 44.6902 37.79 44.6902 38.19C44.6702 39.2 44.6902 39.2 43.6902 39.2C38.7402 39.2 33.7902 39.2 28.8302 39.2C28.2202 39.2 28.2202 39.2 28.2202 38.6C28.2202 37.7 28.2202 37.7 29.0902 37.7C31.5502 37.71 34.0102 37.71 36.4702 37.71Z" fill="#FEFEFE"/>
<path d="M33.4 33.22C31.83 33.22 30.26 33.21 28.68 33.23C28.32 33.23 28.19 33.14 28.2 32.76C28.21 31.72 28.2 31.72 29.22 31.72C32.21 31.72 35.2 31.73 38.19 31.71C38.57 31.71 38.7 31.8 38.69 32.2C38.67 33.21 38.69 33.21 37.69 33.21C36.26 33.22 34.83 33.22 33.4 33.22Z" fill="#FEFEFE"/>
<path d="M50.6601 44.46C50.6501 45.31 50.7701 45.18 49.8101 45.19C49.0401 45.19 49.1701 45.29 49.1601 44.31C49.1601 43.57 49.0801 43.7 50.0301 43.7C50.7701 43.69 50.6501 43.64 50.6601 44.46Z" fill="#FEFEFE"/>
<path d="M41.6801 22.06C41.6501 22.39 41.7401 22.79 41.6101 23.19C41.3801 23.89 40.6901 24.33 39.9801 24.22C39.2901 24.12 38.7201 23.52 38.7001 22.82C38.6801 22.26 38.6801 21.7 38.7001 21.14C38.7301 20.34 39.4101 19.73 40.2101 19.74C40.9901 19.75 41.6401 20.36 41.6801 21.14C41.6901 21.43 41.6801 21.71 41.6801 22.06Z" fill="#EAF6FD"/>
</g>
</g>
<defs>
<filter id="filter0_d_1067_324" x="0" y="0" width="60" height="60" filterUnits="userSpaceOnUse" color-interpolation-filters="sRGB">
<feFlood flood-opacity="0" result="BackgroundImageFix"/>
<feColorMatrix in="SourceAlpha" type="matrix" values="0 0 0 0 0 0 0 0 0 0 0 0 0 0 0 0 0 0 127 0" result="hardAlpha"/>
<feOffset dy="1"/>
<feGaussianBlur stdDeviation="2"/>
<feComposite in2="hardAlpha" operator="out"/>
<feColorMatrix type="matrix" values="0 0 0 0 1 0 0 0 0 0.588235 0 0 0 0 0.14902 0 0 0 0.25 0"/>
<feBlend mode="normal" in2="BackgroundImageFix" result="effect1_dropShadow_1067_324"/>
<feBlend mode="normal" in="SourceGraphic" in2="effect1_dropShadow_1067_324" result="shape"/>
</filter>
<clipPath id="clip0_1067_324">
<rect width="44.91" height="44.92" fill="white" transform="translate(8 7)"/>
</clipPath>
</defs>
</svg>
