<svg width="60" height="60" viewBox="0 0 60 60" fill="none" xmlns="http://www.w3.org/2000/svg">
<g filter="url(#filter0_d_1067_304)">
<rect x="4" y="3" width="52" height="52" rx="8" fill="white"/>
<path d="M25.9607 29.4889C25.9607 26.3789 25.9607 23.2589 25.9607 20.1489C26.6207 19.8589 27.2807 19.5789 27.8307 19.1189C28.0307 18.9589 28.2307 18.9189 28.4707 18.9189C29.1207 18.9089 29.7607 19.0989 30.4507 18.9789C30.2507 18.3389 30.0507 17.7189 29.8507 17.1089C29.7807 16.8989 29.7907 16.7289 29.8807 16.5289C30.6107 14.8989 30.6507 13.2289 30.1007 11.5289C37.5007 11.5289 44.9107 11.5289 52.3107 11.5189C52.7707 11.5189 52.9107 11.6089 52.9107 12.0989C52.8907 24.1989 52.9007 36.2889 52.9107 48.3889C52.9107 48.8489 52.7807 48.9589 52.3307 48.9489C49.5207 48.9289 46.7207 48.9489 43.9107 48.9489C42.6007 48.9489 41.3007 48.9489 39.9907 48.9489C39.7907 48.9489 39.5907 48.9389 39.3807 48.9389C35.0707 48.9389 30.7507 48.9289 26.4407 48.9489C26.0607 48.9489 25.9407 48.8489 25.9407 48.4589C25.9607 46.6189 25.9407 44.7889 25.9407 42.9489C25.9507 38.4589 25.9607 33.9689 25.9607 29.4889ZM42.1907 28.7389C43.0507 28.7389 43.7207 28.7389 44.3907 28.7389C45.4307 28.7389 45.4207 28.7389 45.4307 27.6789C45.4307 27.3189 45.3207 27.2289 44.9807 27.2389C43.3407 27.2589 41.7107 27.2589 40.0707 27.2389C38.1307 27.2189 36.3607 25.7989 35.8607 23.9289C35.6407 23.0789 35.7007 22.2289 35.6907 21.3789C35.6807 20.3189 35.9707 19.3389 36.6407 18.5189C37.8207 17.0789 39.3607 16.4889 41.1707 16.8989C42.8607 17.2789 43.9807 18.3689 44.4907 20.0489C44.8107 21.1189 44.6407 22.2189 44.6707 23.2989C44.6907 23.8889 44.3907 24.2489 43.9307 24.2589C43.4407 24.2689 43.1807 23.9289 43.1707 23.2889C43.1707 22.5989 43.1707 21.9189 43.1707 21.2289C43.1607 19.5889 41.8307 18.2789 40.1807 18.2789C38.5307 18.2789 37.2007 19.5889 37.1807 21.2289C37.1807 21.7389 37.1707 22.2589 37.1807 22.7689C37.1907 23.9689 37.7407 24.8689 38.7807 25.4189C39.8507 25.9789 40.9207 25.8989 41.9007 25.1789C42.1507 24.9989 42.2707 25.0389 42.4807 25.2189C43.1507 25.7989 43.9307 25.9289 44.7507 25.5989C45.5407 25.2789 46.0807 24.6489 46.1207 23.7989C46.1807 22.6089 46.2507 21.3989 46.0507 20.2089C45.6207 17.6189 43.3507 15.5189 40.7507 15.2989C38.0007 15.0589 35.4307 16.7089 34.5207 19.2489C34.0907 20.4289 34.1807 21.6389 34.1807 22.8489C34.1807 25.5189 36.1007 27.9289 38.6907 28.5789C39.9207 28.8589 41.1607 28.6689 42.1907 28.7389ZM39.4507 34.7189C36.0107 34.7189 32.5707 34.7189 29.1207 34.7189C28.2107 34.7189 28.2307 34.7189 28.2007 35.6289C28.1807 36.0989 28.3007 36.2289 28.7907 36.2289C35.7507 36.2089 42.7107 36.2189 49.6807 36.2189C50.6707 36.2189 50.6407 36.2189 50.6707 35.2389C50.6907 34.7789 50.5007 34.7089 50.1107 34.7089C46.5507 34.7289 43.0007 34.7189 39.4507 34.7189ZM39.4607 40.7089C36.0007 40.7089 32.5407 40.7089 29.0907 40.7089C28.2207 40.7089 28.2207 40.7089 28.2207 41.6089C28.2207 42.2089 28.2207 42.2089 28.8307 42.2089C35.7907 42.2089 42.7507 42.2089 49.7207 42.2089C50.6707 42.2089 50.6307 42.2089 50.6807 41.2889C50.7007 40.7989 50.5307 40.6989 50.0807 40.7089C46.5307 40.7189 43.0007 40.7089 39.4607 40.7089ZM37.8907 45.1989C40.8507 45.1989 43.8107 45.1989 46.7707 45.1989C47.6707 45.1989 47.6407 45.1989 47.6807 44.2789C47.7007 43.7889 47.5507 43.6889 47.0807 43.6889C41.1207 43.7089 35.1507 43.6989 29.1907 43.6989C28.2107 43.6989 28.2407 43.6989 28.2107 44.6889C28.2007 45.1089 28.3307 45.2089 28.7407 45.2089C31.7807 45.1889 34.8307 45.1989 37.8907 45.1989ZM36.4707 37.7189C34.0107 37.7189 31.5507 37.7189 29.0907 37.7189C28.2107 37.7189 28.2107 37.7189 28.2207 38.6189C28.2207 39.2189 28.2207 39.2189 28.8307 39.2189C33.7807 39.2189 38.7307 39.2189 43.6907 39.2189C44.6907 39.2189 44.6707 39.2189 44.6907 38.2089C44.7007 37.8089 44.5607 37.7189 44.1807 37.7189C41.6107 37.7189 39.0407 37.7189 36.4707 37.7189ZM33.4007 33.2289C34.8307 33.2289 36.2607 33.2289 37.7007 33.2289C38.7007 33.2289 38.6807 33.2289 38.7007 32.2189C38.7107 31.8189 38.5807 31.7289 38.2007 31.7289C35.2107 31.7389 32.2207 31.7389 29.2307 31.7389C28.2007 31.7389 28.2207 31.7389 28.2107 32.7789C28.2007 33.1589 28.3307 33.2489 28.6907 33.2489C30.2507 33.2189 31.8307 33.2289 33.4007 33.2289ZM50.6607 44.4689C50.6507 43.6489 50.7707 43.6989 50.0407 43.6989C49.0907 43.7089 49.1707 43.5789 49.1707 44.3089C49.1707 45.2889 49.0407 45.1889 49.8207 45.1889C50.7707 45.1889 50.6507 45.3189 50.6607 44.4689Z" fill="#EAF6FD"/>
<path d="M8.16059 51.8889C7.94059 51.8989 8.01059 51.7289 8.01059 51.6289C8.01059 44.3489 8.01059 37.0789 8.01059 29.7989C8.01059 29.6789 7.94059 29.4889 8.18059 29.5089C8.20059 29.6289 8.28059 29.6889 8.37059 29.7589C13.1106 33.3089 17.8406 36.8589 22.5806 40.4089C22.7206 40.5089 22.8806 40.5889 22.8806 40.7889C22.7406 40.8889 22.6006 40.9789 22.4606 41.0789C18.3706 44.1389 14.2806 47.1989 10.2106 50.2789C9.51059 50.8089 8.77059 51.2589 8.16059 51.8889Z" fill="#F4B85B"/>
<path d="M8.16064 51.8889C8.76064 51.2589 9.51064 50.8089 10.2006 50.2889C14.2806 47.2189 18.3706 44.1589 22.4506 41.0889C22.5906 40.9889 22.7306 40.8889 22.8706 40.7989C23.1006 40.7589 23.2506 40.9189 23.4106 41.0289C24.2606 41.6589 25.1106 42.2989 25.9506 42.9389C25.9506 44.7789 25.9706 46.6089 25.9506 48.4489C25.9506 48.8489 26.0706 48.9389 26.4506 48.9389C30.7606 48.9289 35.0806 48.9289 39.3906 48.9289C39.5906 48.9289 39.7906 48.9389 40.0006 48.9389C40.5606 49.3689 41.1306 49.7989 41.6906 50.2489C42.3806 50.7989 43.1506 51.2489 43.7706 51.8789C43.5706 51.8889 43.3706 51.9189 43.1706 51.9189C31.6906 51.9189 20.2106 51.9189 8.72064 51.9189C8.53064 51.9289 8.35064 51.9089 8.16064 51.8889Z" fill="#FAE2BB"/>
<path d="M30.1005 11.5189C30.6405 13.2089 30.6105 14.8789 29.8805 16.5189C29.7905 16.7189 29.7805 16.8989 29.8505 17.0989C30.0605 17.7089 30.2505 18.3289 30.4505 18.9689C29.7605 19.0889 29.1205 18.8889 28.4705 18.9089C28.2305 18.9089 28.0305 18.9489 27.8305 19.1089C27.2705 19.5689 26.6105 19.8589 25.9605 20.1389C24.0605 20.7289 22.2205 20.6289 20.4505 19.6589C16.7305 17.6389 15.8005 12.5489 18.5805 9.38889C21.9905 5.51889 27.9805 6.49889 29.9805 11.2589C30.0305 11.3489 30.0605 11.4389 30.1005 11.5189ZM23.7605 14.8889C23.8205 14.9389 23.8905 14.9989 23.9505 15.0589C24.4405 15.5389 24.9205 16.0289 25.4105 16.5089C26.2105 17.3089 26.2005 17.2989 26.9905 16.4989C27.2105 16.2789 27.1905 16.1489 26.9805 15.9389C26.3305 15.3089 25.7105 14.6589 25.0505 14.0289C24.8205 13.8089 24.8405 13.6789 25.0605 13.4789C25.5505 13.0189 26.0105 12.5389 26.4905 12.0589C27.2705 11.2789 27.2705 11.2789 26.5005 10.5089C26.2705 10.2789 26.1405 10.2689 25.9105 10.5089C25.3005 11.1489 24.6505 11.7589 24.0405 12.3989C23.8205 12.6289 23.6805 12.6589 23.4505 12.4089C23.0005 11.9189 22.5105 11.4589 22.0305 10.9789C21.2405 10.2289 21.2505 10.2389 20.4705 11.0089C20.2305 11.2489 20.2505 11.3789 20.4805 11.5989C21.1305 12.2289 21.7505 12.8789 22.4105 13.5089C22.6205 13.7089 22.6105 13.8289 22.4105 14.0289C21.9105 14.4989 21.4405 14.9989 20.9505 15.4789C20.1805 16.2489 20.1905 16.2389 20.9805 17.0189C21.1905 17.2289 21.3205 17.2589 21.5405 17.0289C22.1605 16.3789 22.8105 15.7489 23.4505 15.1089C23.5305 15.0289 23.5905 14.9089 23.7605 14.8889Z" fill="#E37C6F"/>
<path d="M25.9507 42.9389C25.1007 42.2989 24.2607 41.6589 23.4107 41.0289C23.2607 40.9189 23.1007 40.7589 22.8707 40.7989C22.8707 40.5889 22.7107 40.5189 22.5707 40.4189C17.8307 36.8689 13.1007 33.3189 8.36065 29.7689C8.27065 29.6989 8.19065 29.6389 8.17065 29.5189C8.32065 29.5089 8.48065 29.4889 8.63065 29.4889C14.4007 29.4889 20.1707 29.4889 25.9407 29.4889C25.9607 33.9689 25.9507 38.4589 25.9507 42.9389Z" fill="#F8D08E"/>
<path d="M43.7705 51.8889C43.1505 51.2589 42.3805 50.8089 41.6905 50.2589C41.1405 49.8089 40.5705 49.3889 40.0005 48.9489C41.3105 48.9489 42.6105 48.9489 43.9205 48.9489C43.9205 49.8089 43.9305 50.6789 43.9205 51.5389C43.9205 51.6589 44.0405 51.8689 43.7705 51.8889Z" fill="#F4B85B"/>
<path d="M42.1907 28.7389C41.1607 28.6789 39.9307 28.8589 38.7107 28.5589C36.1207 27.9089 34.2007 25.4989 34.2007 22.8289C34.2007 21.6189 34.1207 20.4089 34.5407 19.2289C35.4607 16.6889 38.0207 15.0389 40.7707 15.2789C43.3607 15.5089 45.6307 17.6089 46.0707 20.1889C46.2707 21.3789 46.1907 22.5889 46.1407 23.7789C46.1007 24.6289 45.5607 25.2489 44.7707 25.5789C43.9607 25.9089 43.1707 25.7789 42.5007 25.1989C42.2907 25.0189 42.1707 24.9789 41.9207 25.1589C40.9407 25.8789 39.8707 25.9589 38.8007 25.3989C37.7507 24.8489 37.2107 23.9489 37.2007 22.7489C37.1907 22.2389 37.2007 21.7189 37.2007 21.2089C37.2107 19.5689 38.5507 18.2589 40.2007 18.2589C41.8507 18.2589 43.1707 19.5689 43.1907 21.2089C43.2007 21.8989 43.1907 22.5789 43.1907 23.2689C43.1907 23.9089 43.4607 24.2489 43.9507 24.2389C44.4007 24.2289 44.7007 23.8689 44.6907 23.2789C44.6607 22.1989 44.8307 21.0989 44.5107 20.0289C44.0107 18.3489 42.8807 17.2589 41.1907 16.8789C39.3807 16.4689 37.8407 17.0589 36.6607 18.4989C35.9907 19.3289 35.7007 20.2989 35.7107 21.3589C35.7207 22.2089 35.6507 23.0589 35.8807 23.9089C36.3807 25.7789 38.1507 27.1989 40.0907 27.2189C41.7307 27.2389 43.3607 27.2289 45.0007 27.2189C45.3507 27.2189 45.4507 27.3089 45.4507 27.6589C45.4407 28.7189 45.4607 28.7189 44.4107 28.7189C43.7207 28.7389 43.0507 28.7389 42.1907 28.7389ZM41.6807 22.0689C41.6807 21.7189 41.6907 21.4389 41.6807 21.1589C41.6407 20.3789 40.9907 19.7689 40.2107 19.7589C39.4007 19.7489 38.7307 20.3589 38.7007 21.1589C38.6807 21.7189 38.6807 22.2789 38.7007 22.8389C38.7307 23.5389 39.2907 24.1389 39.9807 24.2389C40.6907 24.3389 41.3807 23.8989 41.6107 23.2089C41.7407 22.8089 41.6407 22.3989 41.6807 22.0689Z" fill="#F8D08E"/>
<path d="M39.4505 34.7189C43.0005 34.7189 46.5505 34.7289 50.1005 34.7089C50.5005 34.7089 50.6805 34.7689 50.6605 35.2389C50.6305 36.2189 50.6505 36.2189 49.6705 36.2189C42.7105 36.2189 35.7405 36.2089 28.7805 36.2289C28.2905 36.2289 28.1705 36.0989 28.1905 35.6289C28.2305 34.7189 28.2005 34.7189 29.1105 34.7189C32.5705 34.7189 36.0105 34.7189 39.4505 34.7189Z" fill="#FEFEFE"/>
<path d="M39.4607 40.7089C43.0007 40.7089 46.5307 40.7189 50.0707 40.6989C50.5307 40.6989 50.7007 40.7889 50.6707 41.2789C50.6307 42.1989 50.6607 42.1989 49.7107 42.1989C42.7507 42.1989 35.7907 42.1989 28.8207 42.1989C28.2107 42.1989 28.2107 42.1989 28.2107 41.5989C28.2107 40.6989 28.2107 40.6989 29.0807 40.6989C32.5407 40.7089 36.0007 40.7089 39.4607 40.7089Z" fill="#FEFEFE"/>
<path d="M37.8907 45.1989C34.8407 45.1989 31.7807 45.1889 28.7307 45.2089C28.3307 45.2089 28.1907 45.1189 28.2007 44.6889C28.2307 43.6989 28.2107 43.6989 29.1807 43.6989C35.1407 43.6989 41.1107 43.6989 47.0707 43.6889C47.5407 43.6889 47.6907 43.7889 47.6707 44.2789C47.6307 45.1989 47.6607 45.1989 46.7607 45.1989C43.8007 45.1989 40.8507 45.1989 37.8907 45.1989Z" fill="#FEFEFE"/>
<path d="M36.4707 37.7189C39.0407 37.7189 41.6107 37.7289 44.1807 37.7089C44.5607 37.7089 44.6907 37.7989 44.6907 38.1989C44.6707 39.2089 44.6907 39.2089 43.6907 39.2089C38.7407 39.2089 33.7907 39.2089 28.8307 39.2089C28.2207 39.2089 28.2207 39.2089 28.2207 38.6089C28.2207 37.7089 28.2207 37.7089 29.0907 37.7089C31.5507 37.7189 34.0107 37.7189 36.4707 37.7189Z" fill="#FEFEFE"/>
<path d="M33.4005 33.2289C31.8305 33.2289 30.2605 33.2189 28.6805 33.2389C28.3205 33.2389 28.1905 33.1489 28.2005 32.7689C28.2105 31.7289 28.2005 31.7289 29.2205 31.7289C32.2105 31.7289 35.2005 31.7389 38.1905 31.7189C38.5705 31.7189 38.7005 31.8089 38.6905 32.2089C38.6705 33.2189 38.6905 33.2189 37.6905 33.2189C36.2605 33.2289 34.8305 33.2289 33.4005 33.2289Z" fill="#FEFEFE"/>
<path d="M50.6606 44.4689C50.6506 45.3189 50.7706 45.1889 49.8106 45.1989C49.0406 45.1989 49.1706 45.2989 49.1606 44.3189C49.1606 43.5789 49.0806 43.7089 50.0306 43.7089C50.7706 43.6989 50.6506 43.6489 50.6606 44.4689Z" fill="#FEFEFE"/>
<path d="M23.7605 14.8889C23.5905 14.8989 23.5305 15.0189 23.4505 15.1089C22.8105 15.7489 22.1605 16.3789 21.5405 17.0289C21.3205 17.2589 21.1905 17.2289 20.9805 17.0189C20.1905 16.2389 20.1805 16.2489 20.9505 15.4789C21.4305 14.9989 21.9105 14.4989 22.4105 14.0289C22.6205 13.8289 22.6205 13.7089 22.4105 13.5089C21.7605 12.8789 21.1405 12.2289 20.4805 11.5989C20.2505 11.3889 20.2305 11.2489 20.4705 11.0089C21.2505 10.2289 21.2405 10.2189 22.0205 10.9989C22.4905 11.4689 22.9805 11.9289 23.4405 12.4289C23.6705 12.6789 23.8105 12.6489 24.0305 12.4189C24.6405 11.7789 25.2905 11.1689 25.9005 10.5289C26.1305 10.2889 26.2605 10.2989 26.4905 10.5289C27.2605 11.2989 27.2705 11.2889 26.4805 12.0789C26.0105 12.5489 25.5405 13.0389 25.0505 13.4989C24.8305 13.7089 24.8105 13.8389 25.0405 14.0489C25.6905 14.6689 26.3205 15.3289 26.9705 15.9589C27.1905 16.1689 27.2005 16.2889 26.9805 16.5189C26.1905 17.3189 26.2005 17.3289 25.4005 16.5289C24.9205 16.0489 24.4305 15.5589 23.9405 15.0789C23.8905 14.9989 23.8205 14.9489 23.7605 14.8889Z" fill="#FEFEFE"/>
<path d="M41.6805 22.0689C41.6505 22.3989 41.7405 22.7989 41.6105 23.1989C41.3805 23.8989 40.6905 24.3389 39.9805 24.2289C39.2905 24.1289 38.7205 23.5289 38.7005 22.8289C38.6805 22.2689 38.6805 21.7089 38.7005 21.1489C38.7305 20.3489 39.4105 19.7389 40.2105 19.7489C40.9905 19.7589 41.6405 20.3689 41.6805 21.1489C41.6905 21.4389 41.6805 21.7189 41.6805 22.0689Z" fill="#EAF6FD"/>
</g>
<defs>
<filter id="filter0_d_1067_304" x="0" y="0" width="60" height="60" filterUnits="userSpaceOnUse" color-interpolation-filters="sRGB">
<feFlood flood-opacity="0" result="BackgroundImageFix"/>
<feColorMatrix in="SourceAlpha" type="matrix" values="0 0 0 0 0 0 0 0 0 0 0 0 0 0 0 0 0 0 127 0" result="hardAlpha"/>
<feOffset dy="1"/>
<feGaussianBlur stdDeviation="2"/>
<feComposite in2="hardAlpha" operator="out"/>
<feColorMatrix type="matrix" values="0 0 0 0 1 0 0 0 0 0.588235 0 0 0 0 0.14902 0 0 0 0.25 0"/>
<feBlend mode="normal" in2="BackgroundImageFix" result="effect1_dropShadow_1067_304"/>
<feBlend mode="normal" in="SourceGraphic" in2="effect1_dropShadow_1067_304" result="shape"/>
</filter>
</defs>
</svg>
